<mxfile host="app.diagrams.net" modified="2023-11-27T08:48:36.443Z" agent="Mozilla/5.0 (Windows NT 10.0; Win64; x64) AppleWebKit/537.36 (KHTML, like Gecko) Chrome/119.0.0.0 Safari/537.36" version="22.1.4" etag="rg-aKJ3sqtgupgRTEbfK" type="github">
  <diagram name="Page-1" id="n0wxGhMqw-HqUGi-pAw5">
    <mxGraphModel>
      <root>
        <mxCell id="0" />
        <mxCell id="1" parent="0" />
      </root>
    </mxGraphModel>
  </diagram>
</mxfile>
